<svg xmlns="http://www.w3.org/2000/svg" xmlns:xlink="http://www.w3.org/1999/xlink" width="50" height="50" version="1.1" viewBox="0 0 50 50"><g id="surface1"><path style="stroke:none;fill-rule:nonzero;fill:#000;fill-opacity:1" d="M 0 25.023438 L 0 50.042969 L 50.042969 50.042969 L 50.042969 0 L 0 0 Z M 14.65625 22.128906 L 16.882812 24.910156 L 18.039062 21.128906 L 19.039062 21.128906 C 19.574219 21.128906 20.019531 21.195312 20.019531 21.285156 C 20.039062 21.640625 17.683594 29.582031 17.550781 29.582031 C 17.460938 29.582031 14.300781 25.734375 13.210938 24.289062 C 13.011719 24.019531 12.855469 24.378906 12.433594 25.890625 L 11.898438 27.800781 L 10.855469 27.800781 C 10.253906 27.800781 9.785156 27.757812 9.785156 27.691406 C 9.785156 27.578125 11.878906 20.351562 12.121094 19.617188 C 12.1875 19.484375 12.253906 19.351562 12.320312 19.351562 C 12.367188 19.351562 13.410156 20.597656 14.65625 22.128906 Z M 41.59375 19.441406 C 41.59375 19.507812 40.035156 20.664062 38.144531 22.019531 L 34.71875 24.511719 L 35.808594 25.867188 C 37.078125 27.445312 37.011719 27.800781 35.386719 27.800781 C 34.429688 27.78125 34.320312 27.714844 33.609375 26.800781 L 32.875 25.800781 L 31.382812 26.847656 C 30.582031 27.425781 28.691406 28.78125 27.179688 29.847656 L 24.464844 31.804688 L 21.507812 31.804688 L 26.488281 28.246094 C 29.226562 26.289062 31.496094 24.601562 31.539062 24.464844 C 31.582031 24.355469 31.160156 23.6875 30.582031 23 C 30.027344 22.308594 29.605469 21.621094 29.648438 21.484375 C 29.691406 21.351562 30.226562 21.21875 30.828125 21.175781 C 31.871094 21.109375 31.960938 21.128906 32.808594 22.109375 L 33.695312 23.109375 L 36.34375 21.21875 C 38.945312 19.394531 39.035156 19.351562 40.300781 19.351562 C 41.015625 19.351562 41.59375 19.394531 41.59375 19.441406 Z M 28.890625 21.839844 C 29.25 22.242188 29.492188 22.640625 29.449219 22.730469 C 29.382812 22.84375 27.269531 22.910156 24.777344 22.910156 L 20.195312 22.910156 L 20.351562 22.175781 C 20.441406 21.796875 20.550781 21.398438 20.617188 21.285156 C 20.664062 21.195312 22.398438 21.128906 24.488281 21.128906 L 28.246094 21.128906 Z M 27.667969 24.53125 C 28.070312 25.066406 28.089844 25.179688 27.800781 25.355469 C 27.625 25.46875 25.691406 25.578125 23.53125 25.578125 C 19.238281 25.578125 19.328125 25.601562 19.796875 24.355469 L 20.019531 23.800781 L 23.597656 23.84375 L 27.203125 23.910156 Z M 25.710938 26.933594 C 26.335938 27.601562 26.335938 27.625 25.933594 27.9375 C 25.601562 28.179688 24.710938 28.246094 22.199219 28.246094 C 19.082031 28.246094 18.90625 28.226562 18.90625 27.824219 C 18.90625 27.578125 18.996094 27.136719 19.128906 26.824219 L 19.351562 26.246094 L 25.042969 26.246094 Z M 25.710938 26.933594"/></g></svg>